<?xml
version="1.0" encoding="UTF-8"?>
<svg xmlns="http://www.w3.org/2000/svg" viewBox="0 0 18 20">
  <defs>
    <style>
      .cls-1 {
        fill: #e49d23;
      }

      .cls-2 {
        fill: #ea5514;
      }

      .cls-3 {
        fill: #916034;
      }

      .cls-4 {
        fill: #e3e8e2;
      }

      .cls-5 {
        fill: #ea5415;
      }

      .cls-6 {
        fill: #e5e5e5;
      }

      .cls-7 {
        fill: #c5b999;
      }

      .cls-8 {
        fill: #e4e501;
      }

      .cls-9 {
        fill: #00dd2a;
      }

      .cls-10 {
        fill: #ff00a6;
      }

      .cls-11 {
        fill: #2dcfba;
      }

      .cls-12 {
        fill: #bd00d1;
      }

      .cls-13 {
        fill: #1753ff;
      }

      .cls-14 {
        fill: #ff0087;
      }
    </style>
  </defs>
  <g id="レイヤー_2" data-name="レイヤー 2">
    <g id="レイヤー_2-2" data-name="レイヤー 2">
      <rect y="8" width="2" height="8" />
      <polygon class="cls-1" points="6 6 6 8 6 10 6 12 14 12 14 10 16 10 16 8 16 6 6 6" />
      <rect class="cls-2" x="8" y="10" width="2" height="2" />
      <rect class="cls-1" x="16" y="10" width="2" height="2" />
      <rect class="cls-3" x="4" y="6" width="2" height="2" />
      <rect class="cls-4" y="6" width="2" height="2" />
      <rect class="cls-5" y="4" width="2" height="2" />
      <rect class="cls-3" x="8" y="6" width="2" height="2" />
      <rect class="cls-1" y="12" width="2" height="2" />
      <polygon class="cls-6" points="14 2 14 0 8 0 8 2 6 2 6 6 16 6 16 2 14 2" />
      <polygon class="cls-6" points="2 12 2 12 2 14 6 14 6 18 14 18 14 14 18 14 18 12 2 12" />
      <rect class="cls-7" x="4" y="18" width="4" height="2" />
      <rect class="cls-7" x="12" y="18" width="4" height="2" />
      <rect class="cls-8" x="8" y="2" width="2" height="2" />
      <rect class="cls-8" x="14" y="12" width="2" height="2" />
      <rect class="cls-9" x="10" y="12" width="2" height="2" />
      <rect class="cls-10" x="4" y="12" width="2" height="2" />
      <rect class="cls-11" x="8" y="14" width="2" height="2" />
      <rect class="cls-12" x="6" y="16" width="2" height="2" />
      <rect class="cls-13" x="10" y="16" width="2" height="2" />
      <rect class="cls-14" x="12" y="16" width="2" height="2" />
      <rect class="cls-9" x="12" width="2" height="2" />
      <rect class="cls-10" x="12" y="4" width="2" height="2" />
    </g>
  </g>
</svg>